<?xml version="1.0" encoding="utf-8"?>
<!-- Generator: Adobe Illustrator 21.1.0, SVG Export Plug-In . SVG Version: 6.00 Build 0)  -->
<svg version="1.1" id="圖層_1" xmlns="http://www.w3.org/2000/svg" xmlns:xlink="http://www.w3.org/1999/xlink" x="0px" y="0px"
	 viewBox="0 0 400 186" style="enable-background:new 0 0 400 186;" xml:space="preserve">
<style type="text/css">
	.st0{fill:#FFFFFF;}
</style>
<g>
	<ellipse class="st0" cx="256.4" cy="8.9" rx="8.4" ry="7"/>
	<ellipse class="st0" cx="279.7" cy="8.9" rx="8.4" ry="7"/>
	<ellipse class="st0" cx="303.2" cy="8.9" rx="8.4" ry="7"/>
	<ellipse class="st0" cx="326.6" cy="8.9" rx="8.4" ry="7"/>
	<ellipse class="st0" cx="271.8" cy="29.9" rx="8.4" ry="7"/>
	<path class="st0" d="M286.8,29.9c0-4,3.7-7,8.4-7c4.7,0,8.4,3.2,8.4,7s-3.7,7-8.4,7C290.6,36.9,286.8,33.9,286.8,29.9z"/>
	<ellipse class="st0" cx="318.7" cy="29.9" rx="8.4" ry="7"/>
	<ellipse class="st0" cx="342.1" cy="29.9" rx="8.4" ry="7"/>
	<ellipse class="st0" cx="287.3" cy="50.9" rx="8.4" ry="7"/>
	<ellipse class="st0" cx="310.7" cy="50.9" rx="8.4" ry="7"/>
	<path class="st0" d="M325.8,50.9c0-4,3.7-7,8.4-7c4.7,0,8.4,3.2,8.4,7c0,4-3.7,7-8.4,7C329.5,58,325.8,54.9,325.8,50.9z"/>
	<ellipse class="st0" cx="357.6" cy="50.9" rx="8.4" ry="7"/>
	<ellipse class="st0" cx="326.2" cy="72" rx="8.4" ry="7"/>
	<ellipse class="st0" cx="349.6" cy="72" rx="8.4" ry="7"/>
	<ellipse class="st0" cx="373.1" cy="72" rx="8.4" ry="7"/>
	<ellipse class="st0" cx="318.2" cy="93" rx="8.4" ry="7"/>
	<ellipse class="st0" cx="341.7" cy="93" rx="8.4" ry="7"/>
	<path class="st0" d="M356.6,93c0-4,3.7-7,8.4-7c4.7,0,8.4,3.2,8.4,7c0,4-3.7,7-8.4,7C360.5,100.1,356.6,97,356.6,93z"/>
	<ellipse class="st0" cx="388.6" cy="93" rx="8.4" ry="7"/>
	<ellipse class="st0" cx="256.4" cy="177.2" rx="8.4" ry="7"/>
	<ellipse class="st0" cx="279.7" cy="177.2" rx="8.4" ry="7"/>
	<ellipse class="st0" cx="303.2" cy="177.2" rx="8.4" ry="7"/>
	<ellipse class="st0" cx="326.6" cy="177.2" rx="8.4" ry="7"/>
	<ellipse class="st0" cx="271.8" cy="156.1" rx="8.4" ry="7"/>
	<path class="st0" d="M286.8,156.1c0,4,3.7,7,8.4,7c4.7,0,8.4-3.2,8.4-7c0-4-3.7-7-8.4-7C290.6,149.1,286.8,152.3,286.8,156.1z"/>
	<ellipse class="st0" cx="318.7" cy="156.1" rx="8.4" ry="7"/>
	<ellipse class="st0" cx="342.1" cy="156.1" rx="8.4" ry="7"/>
	<ellipse class="st0" cx="310.7" cy="135.1" rx="8.4" ry="7"/>
	<path class="st0" d="M325.8,135.1c0,4,3.7,7,8.4,7c4.7,0,8.4-3.2,8.4-7c0-4-3.7-7-8.4-7C329.5,128,325.8,131.2,325.8,135.1z"/>
	<ellipse class="st0" cx="357.6" cy="135.1" rx="8.4" ry="7"/>
	<ellipse class="st0" cx="326.2" cy="114.1" rx="8.4" ry="7"/>
	<ellipse class="st0" cx="349.6" cy="114.1" rx="8.4" ry="7"/>
	<ellipse class="st0" cx="373.1" cy="114.1" rx="8.4" ry="7"/>
	<path class="st0" d="M310.2,67h-0.3l0,0h-38.4c-0.7,0-2.3,0.2-3.2,0.3C256.4,69,246.1,79,244.7,90.7c-0.2,1.9-0.2,3.8,0.1,5.7
		c1.1,8.6,7.8,15,17,15.4c0.9,0.1,1.7,0.1,2.7,0.1l0,0H279l0,0c0.5,0,1,0,1.5,0c3.6,0.2,6.4,2.7,6.8,6.2c0.1,0.7,0.1,1.5,0,2.2
		c-0.5,5-5.9,9.2-11,9.5c-0.3,0-0.7,0.1-1.1,0.1h-37.5l-3,9.6c0,0,0,0,0,0.1l-0.6,1.9l-0.3,0.9l0,0l-0.1,0.4c-0.1,0.2,0,0.3,0.2,0.3
		h3.2l0,0h39.6c0.7,0,2.3-0.2,3.1-0.3c11.9-1.7,22.1-11.7,23.5-23.4c0.2-1.9,0.2-3.8-0.1-5.7c-1.1-8.6-7.9-15-17-15.4
		c-1-0.1-1.9-0.1-3-0.1l0,0h-14.1l0,0c-0.5,0-1,0-1.5,0c-3.6-0.2-6.4-2.7-6.8-6.2c-0.1-0.7-0.1-1.5,0-2.2c0.5-5,5.1-8.9,10.3-9.2
		c0.3,0,0.7,0,1.1-0.1h34.1l3.8-12.5l0,0l0.1-0.2l0.1-0.4l0,0v-0.1C310.5,67.1,310.4,67,310.2,67z"/>
	<path class="st0" d="M64.8,80.2h-1.5c-0.2,0-0.5,0-0.6-0.2c-0.1-0.1-0.1-0.3-0.1-0.6l0,0l4.5-8.1c0.4-0.7,0.9-1.5,1.5-2.1
		c1.7-1.7,4-2.8,6.2-3l0,0c2.8-0.3,5.7-0.4,8.5-0.4l0,0H127l4.6-15l0.3-1.1c0.1-0.2,0-0.3-0.2-0.3H46.6l0,0
		c-5.9-0.1-11.9,0.2-17.6,0.9l0,0c-4.7,0.5-9.2,2.6-12.8,6.2c-1.3,1.3-2.3,2.8-3.2,4.4l-8.5,16v0.1C4,78,4.1,79,4.8,79.7
		c0.6,0.7,2,0.9,3,0.9H45l-15.3,50v0.2c-0.7,3.6,0.1,6.4,2.6,8.9c2.3,2.3,5.3,3.5,8.4,3.4h0.9h27.8l19.3-62.9H64.8V80.2z"/>
	<path class="st0" d="M227,105.3c-0.7-0.5-1.5-1.1-2.3-1.5c-0.4-0.2-0.9-0.4-1.3-0.6c5.4-3.5,9.7-8.2,11-14.5
		c0.4-1.9,0.5-4.4,0.2-6.2c-1.1-8.6-9.4-15-18.6-15.4c-1-0.1-3-0.1-3-0.1h-38.2c-4.9,0-5.6-0.2-8.2,2.8c-0.6,0.6-1.1,1.2-1.1,1.2
		l-56.6,60c0,0-0.4,0.3-0.7,0.3c-0.4,0-0.9-0.3-0.9-0.7l15.4-50.2h-16.3l-18.2,59.3l0,0l-1,3.2c-0.1,0.2,0,0.3,0.2,0.3h0.7h31
		l55.7-62.7h35.3c0,0,1.6,0,2.1,0.1c3.6,0.2,6.4,2.7,6.8,6.2c0.1,0.7,0.1,1.5,0,2.2c-0.5,4.9-7.4,9.2-12.5,9.5
		c-0.3,0-0.7,0.1-1.1,0.1h-9.5l-4.2,13.2h16.1l0,0c0.5,0,1,0,1.5,0c3.6,0.2,6.1,2.7,6.5,6.2c0.1,0.7,0.1,1.5,0,2.2
		c-0.5,5-5.9,9.2-11,9.5c-0.3,0-0.7,0.1-1.1,0.1h-23.3l12.9-42h-17.7l-16.8,54.5l0,0l-0.1,0.3c-0.1,0.2,0,0.3,0.2,0.3h0.3l0,0h46.2
		c0.1,0,3.2,0,3.7,0c13.1-0.6,24.1-10.5,24.7-22c0.1-1.8-0.1-3.6-0.5-5.3C232.9,111.5,230.4,107.9,227,105.3z"/>
</g>
</svg>
