<?xml version="1.0" encoding="utf-8"?>
<!-- Generator: Adobe Illustrator 24.3.0, SVG Export Plug-In . SVG Version: 6.00 Build 0)  -->
<svg version="1.1" id="Layer_1" xmlns="http://www.w3.org/2000/svg" xmlns:xlink="http://www.w3.org/1999/xlink" x="0px" y="0px"
	 viewBox="0 0 379 190.8" style="enable-background:new 0 0 379 190.8;" xml:space="preserve">
<style type="text/css">
	.st0{fill:#FFFFFF;}
</style>
<g>
	<g>
		<g>
			<g>
				<g>
					<path class="st0" d="M232.4,6.4c0-3.5,3.4-6.4,7.7-6.4c4.2,0,7.7,2.9,7.7,6.4c0,3.5-3.4,6.4-7.7,6.4
						C235.8,12.8,232.4,10,232.4,6.4z"/>
				</g>
				<g>
					<path class="st0" d="M253.7,6.4c0-3.5,3.4-6.4,7.7-6.4c4.2,0,7.7,2.9,7.7,6.4c0,3.5-3.4,6.4-7.7,6.4
						C257.1,12.8,253.7,10,253.7,6.4z"/>
				</g>
				<g>
					<path class="st0" d="M275,6.4c0-3.5,3.4-6.4,7.7-6.4c4.2,0,7.7,2.9,7.7,6.4c0,3.5-3.4,6.4-7.7,6.4C278.4,12.8,275,10,275,6.4z"
						/>
				</g>
				<g>
					<path class="st0" d="M296.3,6.4c0-3.5,3.4-6.4,7.7-6.4c4.2,0,7.7,2.9,7.7,6.4c0,3.5-3.4,6.4-7.7,6.4
						C299.7,12.8,296.3,10,296.3,6.4z"/>
				</g>
				<g>
					<path class="st0" d="M246.4,25.5c0-3.5,3.4-6.4,7.7-6.4c4.2,0,7.7,2.9,7.7,6.4c0,3.5-3.4,6.4-7.7,6.4
						C249.9,31.9,246.4,29.1,246.4,25.5z"/>
				</g>
				<g>
					<path class="st0" d="M267.7,25.5c0-3.5,3.4-6.4,7.7-6.4c4.2,0,7.7,2.9,7.7,6.4c0,3.5-3.4,6.4-7.7,6.4
						C271.2,31.9,267.7,29.1,267.7,25.5z"/>
				</g>
				<g>
					<path class="st0" d="M289,25.5c0-3.5,3.4-6.4,7.7-6.4c4.2,0,7.7,2.9,7.7,6.4c0,3.5-3.4,6.4-7.7,6.4
						C292.4,31.9,289,29.1,289,25.5z"/>
				</g>
				<g>
					<path class="st0" d="M310.3,25.5c0-3.5,3.4-6.4,7.7-6.4c4.2,0,7.7,2.9,7.7,6.4c0,3.5-3.4,6.4-7.7,6.4
						C313.7,31.9,310.3,29.1,310.3,25.5z"/>
				</g>
				<g>
					<path class="st0" d="M260.5,44.6c0-3.5,3.4-6.4,7.7-6.4c4.2,0,7.7,2.9,7.7,6.4c0,3.5-3.4,6.4-7.7,6.4
						C263.9,51.1,260.5,48.2,260.5,44.6z"/>
				</g>
				<g>
					<path class="st0" d="M281.8,44.6c0-3.5,3.4-6.4,7.7-6.4c4.2,0,7.7,2.9,7.7,6.4c0,3.5-3.4,6.4-7.7,6.4
						C285.2,51.1,281.8,48.2,281.8,44.6z"/>
				</g>
				<g>
					<path class="st0" d="M303.1,44.6c0-3.5,3.4-6.4,7.7-6.4c4.2,0,7.7,2.9,7.7,6.4c0,3.5-3.4,6.4-7.7,6.4
						C306.5,51.1,303.1,48.2,303.1,44.6z"/>
				</g>
				<g>
					<path class="st0" d="M324.4,44.6c0-3.5,3.4-6.4,7.7-6.4c4.2,0,7.7,2.9,7.7,6.4c0,3.5-3.4,6.4-7.7,6.4
						C327.8,51.1,324.4,48.2,324.4,44.6z"/>
				</g>
				<g>
					<path class="st0" d="M295.8,63.7c0-3.5,3.4-6.4,7.7-6.4c4.2,0,7.7,2.9,7.7,6.4c0,3.5-3.4,6.4-7.7,6.4
						C299.3,70.2,295.8,67.3,295.8,63.7z"/>
				</g>
				<g>
					<path class="st0" d="M317.1,63.7c0-3.5,3.4-6.4,7.7-6.4c4.2,0,7.7,2.9,7.7,6.4c0,3.5-3.4,6.4-7.7,6.4
						C320.6,70.2,317.1,67.3,317.1,63.7z"/>
				</g>
				<g>
					<path class="st0" d="M338.4,63.7c0-3.5,3.4-6.4,7.7-6.4c4.2,0,7.7,2.9,7.7,6.4c0,3.5-3.4,6.4-7.7,6.4
						C341.8,70.2,338.4,67.3,338.4,63.7z"/>
				</g>
				<g>
					<path class="st0" d="M288.6,82.9c0-3.5,3.4-6.4,7.7-6.4c4.2,0,7.7,2.9,7.7,6.4c0,3.5-3.4,6.4-7.7,6.4
						C292,89.3,288.6,86.4,288.6,82.9z"/>
				</g>
				<g>
					<path class="st0" d="M309.9,82.9c0-3.5,3.4-6.4,7.7-6.4s7.7,2.9,7.7,6.4c0,3.5-3.4,6.4-7.7,6.4S309.9,86.4,309.9,82.9z"/>
				</g>
				<g>
					<path class="st0" d="M331.2,82.9c0-3.5,3.4-6.4,7.7-6.4c4.2,0,7.7,2.9,7.7,6.4c0,3.5-3.4,6.4-7.7,6.4
						C334.6,89.3,331.2,86.4,331.2,82.9z"/>
				</g>
				<g>
					<path class="st0" d="M352.5,82.9c0-3.5,3.4-6.4,7.7-6.4c4.2,0,7.7,2.9,7.7,6.4c0,3.5-3.4,6.4-7.7,6.4
						C355.9,89.3,352.5,86.4,352.5,82.9z"/>
				</g>
				<g>
					<path class="st0" d="M232.4,159.3c0,3.5,3.4,6.4,7.7,6.4c4.2,0,7.7-2.9,7.7-6.4c0-3.5-3.4-6.4-7.7-6.4
						C235.8,152.9,232.4,155.7,232.4,159.3z"/>
				</g>
				<g>
					<path class="st0" d="M253.7,159.3c0,3.5,3.4,6.4,7.7,6.4c4.2,0,7.7-2.9,7.7-6.4c0-3.5-3.4-6.4-7.7-6.4
						C257.1,152.9,253.7,155.7,253.7,159.3z"/>
				</g>
				<g>
					<path class="st0" d="M275,159.3c0,3.5,3.4,6.4,7.7,6.4c4.2,0,7.7-2.9,7.7-6.4c0-3.5-3.4-6.4-7.7-6.4
						C278.4,152.9,275,155.7,275,159.3z"/>
				</g>
				<g>
					<path class="st0" d="M296.3,159.3c0,3.5,3.4,6.4,7.7,6.4c4.2,0,7.7-2.9,7.7-6.4c0-3.5-3.4-6.4-7.7-6.4
						C299.7,152.9,296.3,155.7,296.3,159.3z"/>
				</g>
				<g>
					<path class="st0" d="M246.4,140.2c0,3.5,3.4,6.4,7.7,6.4c4.2,0,7.7-2.9,7.7-6.4c0-3.5-3.4-6.4-7.7-6.4
						C249.9,133.8,246.4,136.6,246.4,140.2z"/>
				</g>
				<g>
					<path class="st0" d="M267.7,140.2c0,3.5,3.4,6.4,7.7,6.4c4.2,0,7.7-2.9,7.7-6.4c0-3.5-3.4-6.4-7.7-6.4
						C271.2,133.8,267.7,136.6,267.7,140.2z"/>
				</g>
				<g>
					<path class="st0" d="M289,140.2c0,3.5,3.4,6.4,7.7,6.4c4.2,0,7.7-2.9,7.7-6.4c0-3.5-3.4-6.4-7.7-6.4
						C292.4,133.8,289,136.6,289,140.2z"/>
				</g>
				<g>
					<path class="st0" d="M310.3,140.2c0,3.5,3.4,6.4,7.7,6.4c4.2,0,7.7-2.9,7.7-6.4c0-3.5-3.4-6.4-7.7-6.4
						C313.7,133.8,310.3,136.6,310.3,140.2z"/>
				</g>
				<g>
					<path class="st0" d="M281.8,121.1c0,3.5,3.4,6.4,7.7,6.4c4.2,0,7.7-2.9,7.7-6.4c0-3.5-3.4-6.4-7.7-6.4
						C285.2,114.7,281.8,117.5,281.8,121.1z"/>
				</g>
				<g>
					<path class="st0" d="M303.1,121.1c0,3.5,3.4,6.4,7.7,6.4c4.2,0,7.7-2.9,7.7-6.4c0-3.5-3.4-6.4-7.7-6.4
						C306.5,114.7,303.1,117.5,303.1,121.1z"/>
				</g>
				<g>
					<path class="st0" d="M324.4,121.1c0,3.5,3.4,6.4,7.7,6.4c4.2,0,7.7-2.9,7.7-6.4c0-3.5-3.4-6.4-7.7-6.4
						C327.8,114.7,324.4,117.5,324.4,121.1z"/>
				</g>
				<g>
					<path class="st0" d="M295.8,102c0,3.5,3.4,6.4,7.7,6.4c4.2,0,7.7-2.9,7.7-6.4c0-3.5-3.4-6.4-7.7-6.4
						C299.3,95.5,295.8,98.4,295.8,102z"/>
				</g>
				<g>
					<path class="st0" d="M317.1,102c0,3.5,3.4,6.4,7.7,6.4c4.2,0,7.7-2.9,7.7-6.4c0-3.5-3.4-6.4-7.7-6.4
						C320.6,95.5,317.1,98.4,317.1,102z"/>
				</g>
				<g>
					<path class="st0" d="M338.4,102c0,3.5,3.4,6.4,7.7,6.4c4.2,0,7.7-2.9,7.7-6.4c0-3.5-3.4-6.4-7.7-6.4
						C341.8,95.5,338.4,98.4,338.4,102z"/>
				</g>
				<g>
					<path class="st0" d="M288.9,59.1h-0.2v0h-34.9c-0.7,0-2.2,0.2-2.9,0.3c-10.8,1.6-20.1,10.7-21.3,21.2c-0.2,1.8-0.2,3.5,0.1,5.1
						c1,7.9,7.1,13.6,15.4,14c0.8,0.1,1.6,0.1,2.4,0.1v0h13.1c0,0,0,0,0,0c0.5,0,0.9,0,1.3,0c3.3,0.2,5.8,2.5,6.2,5.6
						c0.1,0.7,0.1,1.3,0,2.1c-0.5,4.5-5.3,8.4-10,8.6c-0.3,0-0.7,0.1-1,0.1h-34l-2.7,8.7c0,0,0,0,0,0.1l-0.5,1.8l-0.2,0.8
						c0,0,0,0,0,0l-0.1,0.4c-0.1,0.2,0,0.3,0.2,0.3h2.9h0h35.9c0.7,0,2.2-0.2,2.9-0.3c10.8-1.6,20.1-10.7,21.3-21.2
						c0.2-1.8,0.2-3.5-0.1-5.1c-1-7.9-7.1-13.6-15.4-14c-0.9-0.1-1.8-0.1-2.7-0.1v0h-12.8c0,0,0,0,0,0c-0.5,0-0.9,0-1.3,0
						c-3.3-0.2-5.8-2.5-6.2-5.6c-0.1-0.7-0.1-1.3,0-2.1c0.5-4.5,4.6-8.1,9.3-8.3c0.3,0,0.7,0,1-0.1h30.9l3.5-11.3l0,0l0.1-0.2
						l0.1-0.4c0,0,0,0,0,0l0-0.1C289.2,59.3,289.1,59.1,288.9,59.1z"/>
				</g>
				<g>
					<path class="st0" d="M66,71.2h-1.3c-0.2,0-0.4,0-0.6-0.2c-0.1-0.1-0.1-0.3-0.1-0.5l0,0l4.1-7.3c0.4-0.7,0.8-1.3,1.4-1.9
						c1.6-1.6,3.6-2.5,5.6-2.7l0,0c2.5-0.3,5.1-0.4,7.7-0.4l0,0h39.8l4.2-13.6l0.3-1c0.1-0.2,0-0.3-0.2-0.3l-77.4,0l0,0
						c-5.4-0.1-10.8,0.2-16,0.8l0,0c-4.3,0.5-8.4,2.3-11.6,5.6c-1.2,1.2-2.2,2.5-2.9,4l-7.8,14.6l0,0.1c-0.4,1-0.3,1.9,0.3,2.5
						c0.6,0.7,1.9,0.8,2.7,0.8H48L34.1,117l0,0.2c-0.7,3.3,0.1,5.8,2.3,8c2.1,2.1,4.9,3.2,7.6,3.1h0.7H70l17.5-57.1H66z"/>
				</g>
				<g>
					<path class="st0" d="M213.3,94c-0.7-0.5-1.4-0.9-2.1-1.3c-0.4-0.2-0.8-0.4-1.2-0.6c5-3.2,8.9-7.5,10-13.2
						c0.3-1.8,0.5-4,0.2-5.6c-1-7.9-8.5-13.6-16.8-14c-0.9-0.1-2.7-0.1-2.7-0.1l-34.7,0c-4.5,0-5-0.2-7.5,2.5
						c-0.5,0.6-0.9,1.1-0.9,1.1l-51.4,54.5c0,0-0.4,0.3-0.7,0.3c-0.4,0-0.7-0.3-0.8-0.7l13.9-45.6h-14.8l-16.5,53.9c0,0,0,0,0,0
						l-0.9,2.9c-0.1,0.2,0,0.3,0.2,0.3h0.7h28.2L166,71.4h32.2c0,0,1.5,0,1.9,0.1c3.3,0.2,5.8,2.5,6.2,5.6c0.1,0.7,0.1,1.3,0,2.1
						c-0.5,4.5-6.7,8.4-11.4,8.6c-0.3,0-0.7,0-1,0.1h-8.7l-3.8,12h14.6c0,0,0,0,0,0c0.5,0,0.9,0,1.3,0c3.3,0.2,5.5,2.5,5.9,5.6
						c0.1,0.7,0.1,1.3,0,2.1c-0.5,4.5-5.3,8.4-10,8.6c-0.3,0-0.7,0-1,0.1h-21.1l11.7-38.1H167l-15.2,49.5l0,0l-0.1,0.3
						c-0.1,0.2,0,0.3,0.2,0.3h0.3l0,0h42c0.1,0,2.9,0,3.4,0c11.9-0.6,21.9-9.5,22.4-20c0.1-1.7-0.1-3.3-0.5-4.8
						C218.7,99.6,216.5,96.3,213.3,94z"/>
				</g>
			</g>
		</g>
	</g>
	<g>
		<g>
			<path class="st0" d="M54.5,172.2l-5,1.3c1.3,3.4,2.4,6.9,3.2,10.5l5.1-2C57,179,55.9,175.7,54.5,172.2z"/>
		</g>
		<g>
			<path class="st0" d="M54.5,172.2l-5,1.3c1.3,3.4,2.4,6.9,3.2,10.5l5.1-2C57,179,55.9,175.7,54.5,172.2z"/>
		</g>
		<g>
			<path class="st0" d="M35.7,172.5c-1,4.7-2.7,9.1-5.2,13.3l5,3.2c2.4-4.3,4.3-9.4,5.6-15.3L35.7,172.5z"/>
		</g>
		<g>
			<path class="st0" d="M35.7,172.5c-1,4.7-2.7,9.1-5.2,13.3l5,3.2c2.4-4.3,4.3-9.4,5.6-15.3L35.7,172.5z"/>
		</g>
		<g>
			<path class="st0" d="M67.1,145.8c6-0.3,11.4-1.3,16.3-3l-3-5.4c-5.7,2.2-12,3.4-19.2,3.5V166c-0.2,8.5-2,15.2-5.3,20l4.3,4.6
				c4.2-6.1,6.5-14.3,6.8-24.6v-5.5h6.3v30.2h6v-30.2h5.3v-5.7H67.1V145.8z"/>
		</g>
		<g>
			<path class="st0" d="M67.1,145.8c6-0.3,11.4-1.3,16.3-3l-3-5.4c-5.7,2.2-12,3.4-19.2,3.5V166c-0.2,8.5-2,15.2-5.3,20l4.3,4.6
				c4.2-6.1,6.5-14.3,6.8-24.6v-5.5h6.3v30.2h6v-30.2h5.3v-5.7H67.1V145.8z"/>
		</g>
		<g>
			<path class="st0" d="M58.1,164.7h-9.5v-4.7h10.5v-5.5h-5.6c0.8-1.7,1.4-3.5,2.1-5.4l-5.4-1.9c-0.6,2.5-1.4,5-2.3,7.4h-5.1
				c-0.8-2.8-1.6-5.3-2.5-7.4l-5.3,2c0.9,1.6,1.7,3.4,2.4,5.3h-5.9v5.5h11v4.7H32.5v5.5h10.1V184c0,1.1-0.7,1.7-2,1.7
				c-0.7,0-1.5-0.2-2.4-0.4l1.3,5.6h3c4,0,6-1.8,6-5.4v-15.2h9.5V164.7z"/>
		</g>
		<g>
			<path class="st0" d="M58.1,164.7h-9.5v-4.7h10.5v-5.5h-5.6c0.8-1.7,1.4-3.5,2.1-5.4l-5.4-1.9c-0.6,2.5-1.4,5-2.3,7.4h-5.1
				c-0.8-2.8-1.6-5.3-2.5-7.4l-5.3,2c0.9,1.6,1.7,3.4,2.4,5.3h-5.9v5.5h11v4.7H32.5v5.5h10.1V184c0,1.1-0.7,1.7-2,1.7
				c-0.7,0-1.5-0.2-2.4-0.4l1.3,5.6h3c4,0,6-1.8,6-5.4v-15.2h9.5V164.7z"/>
		</g>
		<g>
			<path class="st0" d="M58.7,141.4H48.2c-0.7-1.9-1.3-3.5-2-5l-6.3,1c0.8,1.2,1.6,2.5,2.3,4h-10v5.6h26.6V141.4z"/>
		</g>
		<g>
			<path class="st0" d="M58.7,141.4H48.2c-0.7-1.9-1.3-3.5-2-5l-6.3,1c0.8,1.2,1.6,2.5,2.3,4h-10v5.6h26.6V141.4z"/>
		</g>
		<g>
			<path class="st0" d="M134.1,177.7c-1.5,0.1-3,0.3-4.6,0.4V164h5.1v-5.1h-31.3v5.1h4.2v15.4c-1.4,0-3,0.1-4.5,0.2l0.7,5.3
				c7.2-0.3,14-0.8,20.3-1.3v5.4h5.4v-5.8l4.6-0.5V177.7z M124,178.5c-3.5,0.2-7.2,0.4-11.1,0.6v-2.5H124V178.5z M124,172.4h-11.1
				v-2.3H124V172.4z M124,166.1h-11.1V164H124V166.1z"/>
		</g>
		<g>
			<path class="st0" d="M134.1,177.7c-1.5,0.1-3,0.3-4.6,0.4V164h5.1v-5.1h-31.3v5.1h4.2v15.4c-1.4,0-3,0.1-4.5,0.2l0.7,5.3
				c7.2-0.3,14-0.8,20.3-1.3v5.4h5.4v-5.8l4.6-0.5V177.7z M124,178.5c-3.5,0.2-7.2,0.4-11.1,0.6v-2.5H124V178.5z M124,172.4h-11.1
				v-2.3H124V172.4z M124,166.1h-11.1V164H124V166.1z"/>
		</g>
		<g>
			<path class="st0" d="M121.1,156.6H138V183c0,1.4-0.7,2.1-2,2.1c-1.4,0-3-0.1-4.7-0.3l1.4,5.3c1.8,0.1,3.6,0.2,5.5,0.2
				c3.9,0,5.8-1.9,5.8-5.6v-46.1h-22.9V156.6z M127.1,143.3H138v2.2h-10.9V143.3z M127.1,149.5H138v2.7h-10.9V149.5z"/>
		</g>
		<g>
			<path class="st0" d="M121.1,156.6H138V183c0,1.4-0.7,2.1-2,2.1c-1.4,0-3-0.1-4.7-0.3l1.4,5.3c1.8,0.1,3.6,0.2,5.5,0.2
				c3.9,0,5.8-1.9,5.8-5.6v-46.1h-22.9V156.6z M127.1,143.3H138v2.2h-10.9V143.3z M127.1,149.5H138v2.7h-10.9V149.5z"/>
		</g>
		<g>
			<path class="st0" d="M117.1,138.7H94v51.8h6v-34h17.1V138.7z M111.1,152.1H100v-2.6h11.1V152.1z M111.1,145.5H100v-2.3h11.1
				V145.5z"/>
		</g>
		<g>
			<path class="st0" d="M117.1,138.7H94v51.8h6v-34h17.1V138.7z M111.1,152.1H100v-2.6h11.1V152.1z M111.1,145.5H100v-2.3h11.1
				V145.5z"/>
		</g>
		<g>
			<path class="st0" d="M161.2,158.1c-2.1,3.8-3.8,6.4-5.2,8c-0.7,0.7-1.5,1.2-2.5,1.6l1.4,5c4.1-0.5,8.3-1.4,12.9-2.8l0.5,2.5
				l4.5-1.1c-0.8-4.5-1.8-8.4-2.8-11.8l-4.3,1.4c0.5,1.5,0.9,3.1,1.3,4.9c-1.9,0.5-3.8,0.9-5.7,1.2c3-3.9,6.7-10.1,11.2-18.8l-5.2-2
				c-1.2,2.4-2.3,4.7-3.3,6.8l-4.3,0.7c2.4-3.9,4.9-8.9,7.2-15l-5.5-2.2c-1.6,5.5-3.4,10.6-5.6,15.2c-0.7,1-1.5,1.7-2.4,2.1l1.4,5.3
				C157,158.8,159.1,158.5,161.2,158.1z"/>
		</g>
		<g>
			<path class="st0" d="M161.2,158.1c-2.1,3.8-3.8,6.4-5.2,8c-0.7,0.7-1.5,1.2-2.5,1.6l1.4,5c4.1-0.5,8.3-1.4,12.9-2.8l0.5,2.5
				l4.5-1.1c-0.8-4.5-1.8-8.4-2.8-11.8l-4.3,1.4c0.5,1.5,0.9,3.1,1.3,4.9c-1.9,0.5-3.8,0.9-5.7,1.2c3-3.9,6.7-10.1,11.2-18.8l-5.2-2
				c-1.2,2.4-2.3,4.7-3.3,6.8l-4.3,0.7c2.4-3.9,4.9-8.9,7.2-15l-5.5-2.2c-1.6,5.5-3.4,10.6-5.6,15.2c-0.7,1-1.5,1.7-2.4,2.1l1.4,5.3
				C157,158.8,159.1,158.5,161.2,158.1z"/>
		</g>
		<g>
			<path class="st0" d="M197.2,180.2v-4.5h-9.6v-6.4h10.7v-5.1h-6.1c-0.5-1.9-0.9-3.6-1.3-5.2l-5,0.8c0.6,1.3,1.1,2.8,1.6,4.3h-6.9
				v5.1h2.4v10.9H197.2z"/>
		</g>
		<g>
			<path class="st0" d="M197.2,180.2v-4.5h-9.6v-6.4h10.7v-5.1h-6.1c-0.5-1.9-0.9-3.6-1.3-5.2l-5,0.8c0.6,1.3,1.1,2.8,1.6,4.3h-6.9
				v5.1h2.4v10.9H197.2z"/>
		</g>
		<g>
			<path class="st0" d="M173.5,182.1c-0.9-3.2-1.9-6.2-3-9l-3.8,1.3c1,3,1.9,6.4,2.7,10.2l4.1-1.9v7.4h5.5v-45.9h20.7v38.3
				c0,1.3-0.5,2-1.5,2l-7.1-0.2l1.5,5.3h7.3c3.5,0,5.3-2,5.3-5.9v-44.9h-31.7V182.1z"/>
		</g>
		<g>
			<path class="st0" d="M173.5,182.1c-0.9-3.2-1.9-6.2-3-9l-3.8,1.3c1,3,1.9,6.4,2.7,10.2l4.1-1.9v7.4h5.5v-45.9h20.7v38.3
				c0,1.3-0.5,2-1.5,2l-7.1-0.2l1.5,5.3h7.3c3.5,0,5.3-2,5.3-5.9v-44.9h-31.7V182.1z"/>
		</g>
		<g>
			<path class="st0" d="M160.8,175.6c0.6,3.5,1.2,7.5,1.6,12l4.8-1.1c-0.6-4.3-1.4-8.2-2.2-11.8L160.8,175.6z"/>
		</g>
		<g>
			<path class="st0" d="M160.8,175.6c0.6,3.5,1.2,7.5,1.6,12l4.8-1.1c-0.6-4.3-1.4-8.2-2.2-11.8L160.8,175.6z"/>
		</g>
		<g>
			<path class="st0" d="M153,188.3l4.8,1.5c1-4.1,1.6-8.9,1.9-14.2l-4.7-0.6C154.7,180,154.1,184.4,153,188.3z"/>
		</g>
		<g>
			<path class="st0" d="M153,188.3l4.8,1.5c1-4.1,1.6-8.9,1.9-14.2l-4.7-0.6C154.7,180,154.1,184.4,153,188.3z"/>
		</g>
		<g>
			<path class="st0" d="M180.1,158.5h18.5v-5.1h-3.9c0.9-2.2,1.6-4.5,2.1-7.1l-4.9-0.7c-0.3,2.7-0.9,5.2-1.7,7.8h-4.5l2.8-1.3
				c-0.8-2.2-1.7-4.3-2.8-6.3l-4.2,1.4c0.9,1.7,1.9,3.8,2.7,6.1h-4V158.5z"/>
		</g>
		<g>
			<path class="st0" d="M180.1,158.5h18.5v-5.1h-3.9c0.9-2.2,1.6-4.5,2.1-7.1l-4.9-0.7c-0.3,2.7-0.9,5.2-1.7,7.8h-4.5l2.8-1.3
				c-0.8-2.2-1.7-4.3-2.8-6.3l-4.2,1.4c0.9,1.7,1.9,3.8,2.7,6.1h-4V158.5z"/>
		</g>
	</g>
</g>
</svg>
